# xmcd CD database file
#
# Track frame offsets:
#	180
#	21316
#	52654
#	74304
#	104523
#	117671
#	151264
#	180060
#	203703
#	220186
#
# Disc length: 3510 seconds
#
# Revision: 0
# Processed by: cddbd v1.4PL0 Copyright (c) Steve Scherf et al.
# Submitted via: CDex 1.50Beta7
#
DISCID=810db40a
DTITLE=Eddie Kirkland - Some Like It Raw (live)
DYEAR=1993
DGENRE=Blues
TTITLE0=Don't Fool with that Bag
TTITLE1=Everyday I Have the Blues
TTITLE2=Woke Up This Morning
TTITLE3=Lonely Street
TTITLE4=Walkin' (on My Way to Miami)
TTITLE5=Squeeze Me
TTITLE6=Got My Mojo Working
TTITLE7=Grease Your Monkey
TTITLE8=In Love with You
TTITLE9=Love Don't Love Nobody
EXTD=YEAR: 1993
EXTT0=
EXTT1=
EXTT2=
EXTT3=
EXTT4=
EXTT5=
EXTT6=
EXTT7=
EXTT8=
EXTT9=
PLAYORDER=
